<svg xmlns="http://www.w3.org/2000/svg" viewBox="0 0 450 430"><defs><style>.cls-1{isolation:isolate;}.cls-2{fill:#cde0fe;}.cls-3{fill:#ebf3ff;}.cls-13,.cls-14,.cls-4{fill:#ffbf8f;}.cls-5{fill:#df3a3a;}.cls-10,.cls-13,.cls-14,.cls-15,.cls-16,.cls-17,.cls-5,.cls-7,.cls-9{fill-rule:evenodd;}.cls-6{fill:#f7b690;}.cls-7{fill:#222b54;}.cls-16,.cls-8{fill:#ff954d;}.cls-9{fill:#0a3c5f;}.cls-10{fill:#570809;}.cls-11{fill:#dbdad8;}.cls-12{fill:#868b8e;}.cls-13{mix-blend-mode:multiply;}.cls-17,.cls-18{fill:#211400;}.cls-19{fill:#382200;}.cls-20{fill:#fff;}</style></defs><title>cyber_man_laptop</title><g class="cls-1"><g id="Layer_1" data-name="Layer 1"><g id="Group_2413" data-name="Group 2413"><path id="Path_10251" data-name="Path 10251" class="cls-2" d="M337.36,389c-12.64,3.89-38,1.16-51.05-.32q-35.15-3.87-70.33-7.78c-11.62-1.26-21.72.87-32.26,3.06a181.62,181.62,0,0,1-18.81,3.24h0a283.87,283.87,0,0,1-31.53,1.54h-1.67a176.59,176.59,0,0,1-32.59-3.47,115.57,115.57,0,0,1-47-20.82,66.55,66.55,0,0,1-20.24-23.89c-10.08-21.44-3.83-45.15,5.54-65.18,8-17.14,20.7-31,16.72-52.14-3.17-16.75-15-34-7.77-49.08,4.82-10,16-13.34,26.07-14.66,22-2.93,44.58-.93,66-7.19,27.51-8.06,35.07-27.2,48.25-51.62,12-22.44,32.24-42.43,53.88-52,31.66-14,68.52-7.28,100.27,6.52,43.45,18.81,66.32,81,53.16,130.22-6.76,25.18-9.63,51.62,3.69,79.49C418.14,307.78,392,372.26,337.36,389Z"/><path id="Path_10252" data-name="Path 10252" class="cls-3" d="M214.66,354.6c59.12,15.56,124,38.67,151.75-23.75,16.38-36.93-1.65-68.47-7.86-93.41C343,181.43,339.89,113,283.88,91.2c-65.33-28-84,43.45-130.68,71.57-31.1,15.55-84.14-40.94-112.14-3.61-17.6,28.48,18.18,45.34,19.79,71C63.76,276,18.27,280.73,36.3,326.35c12.45,18.66,45.36,16.86,67.13,23.07,10.34,5.17,15.4,12.63,21.73,20,9,0,.3,1.13,9.08.26l7.51-.52a10.53,10.53,0,0,0,1.48-.2C159.53,347.41,186.55,346.61,214.66,354.6Z"/></g><path class="cls-4" d="M112.9,282.55c-.52,4.87-.81,10.05,1.43,14.41s7.92,7.31,12.21,4.94c2.41-1.33,3.8-3.93,5.06-6.39q10.58-20.72,21.14-41.43c5.82-11.39,11.78-23.47,11-36.24A30.27,30.27,0,0,0,158,201.36c-3.11-4.11-9.88-10.66-14.53-5.86s-7.82,13.15-10.75,19.08a202.36,202.36,0,0,0-19.85,68Z"/><path class="cls-5" d="M163.73,220.55a33.61,33.61,0,0,0-6.41-18.34c-3.46-4.58-5.49-16.08-10.66-10.73s-14.21,18.85-17.47,25.44A225.61,225.61,0,0,0,118,243.72l33.79,16.39C158.17,247.66,164.54,234.47,163.73,220.55Z"/><path class="cls-6" d="M114,281.6c3.42-4.17,9.33-5.64,14.7-5s10.37,2.94,15.25,5.26q13.43,6.38,26.83,12.78l27.68,13.21c1.44.69,3,1.53,3.49,3.06a4,4,0,0,1-2.07,4.27,11,11,0,0,1-4.95,1.08,145.15,145.15,0,0,1-41.28-3.83,147.12,147.12,0,0,1-20-6.33c-5.6-2.22-13.53-4.68-18.05-8.78C111.24,293.35,110.15,286.24,114,281.6Z"/><path class="cls-7" d="M171.92,312.72c10.29-1.5,59.11-1.5,69.39,0,12.8,1.88,10.87,17.8,9.26,27.32-1.76,10.39-3.91,21.55-11.55,28.82-7.46,7.09-57.34,7.09-64.8,0-7.64-7.27-9.79-18.43-11.55-28.82C161.06,330.52,159.13,314.6,171.92,312.72Z"/><path class="cls-7" d="M351.06,356.38c5.37,5.92,8.87,15.63,4.22,21.79-3.95,5.21-114.17-5-130.47-5-11.58-14.77-11.12-37.18,18.56-52.29,6.35-3.23,13.32.16,20.22,1.61C283.56,326.65,337.72,341.67,351.06,356.38Z"/><path class="cls-7" d="M112.73,251.18c-8-.69-16.75,2.4-20.63,9.39-3.17,5.72-2.49,12.94.18,18.91s7.1,10.94,11.46,15.81c63,70.4,64,73.59,74.58,76.42,18,4.82,39.64-.08,23.72-41.31C199.47,323.75,132.51,252.9,112.73,251.18Z"/><path class="cls-8" d="M168.81,395.16c-4.19-2.45-12.51-13.26-22.25-27.51l18.33-6.46C170.88,382.46,173.21,397.73,168.81,395.16Z"/><path class="cls-9" d="M96.77,252.35c11.18-5.39,22.2-4,31.13,10.48,12,19.51,28.19,67.12,37,98.36l-21,9.53c-13.31-30.37-39.55-69.77-49.72-87.67C88.44,273,88,256.61,96.77,252.35Z"/><path class="cls-8" d="M224.41,375.29l9.1,17c-13.6.89-24.53,1.05-29.15-.87S209,382.74,224.41,375.29Z"/><path class="cls-9" d="M332,356.09c17,0,25.4,8.74,25.4,14.9,0,10.47-6.46,21.66-22.56,21.66-20.47,0-71.77-.7-103.23,1.45l-7.22-18.81C247.62,364.08,307.16,356.09,332,356.09Z"/><path class="cls-10" d="M197.63,389.06c.62-.39,5.3-7.29,8.36-8.52,1.77-.7,4.17-1.83,6.07-.9,2.15,1.05,2.25,4.05,3.53,5.85a10.17,10.17,0,0,0,3.77,3.21l3-4c10.53,4.86,2.17,17.1,12.73,22.13,2.55,1.22,5.33,2.07,7.51,3.86s3.57,5.05,2.12,7.47a4.76,4.76,0,0,1-2.41,1.94l-34-16.51s-.21-6.88.77-7.65c-1.16.46-3.86,1.72-5.1,1.74Z"/><path class="cls-10" d="M145.81,396.06c-.11-2.81,1.06-5.15,2.27-5.8s3.09-5.37,5.59-12.28c1.15-3.15,7.52-4,10.71,1.4,1,1.76,2,2.91,3.15,2.87,1,0,2.06-1.72,3-.61s1,3.58,1.25,5.43c.36,3.19.69,6.4,1,9.6.08.71.15,1.45.18,2.18H146.39A8.21,8.21,0,0,1,145.81,396.06Z"/><path class="cls-4" d="M300.33,282.55c.53,4.87.82,10.05-1.42,14.41s-7.92,7.31-12.21,4.94c-2.42-1.33-3.8-3.93-5.06-6.39l-21.15-41.43c-5.81-11.39-11.78-23.47-11-36.24a30.19,30.19,0,0,1,5.76-16.48c3.11-4.11,9.88-10.66,14.53-5.86s7.82,13.15,10.75,19.08a202.9,202.9,0,0,1,15.53,43A199.26,199.26,0,0,1,300.33,282.55Z"/><path class="cls-5" d="M249.46,220.55a33.68,33.68,0,0,1,6.4-18.34c3.47-4.58,5.49-16.08,10.67-10.73s14.2,18.85,17.47,25.44a227.29,227.29,0,0,1,11.15,26.8l-33.79,16.39C255,247.66,248.65,234.47,249.46,220.55Z"/><path class="cls-4" d="M298.37,284c-3.43-4.17-9.33-5.64-14.7-5s-10.37,2.94-15.25,5.26Q255,290.61,241.59,297L213.9,310.22c-1.43.69-3,1.54-3.48,3.06s.59,3.41,2.07,4.27a11,11,0,0,0,4.95,1.08,146.36,146.36,0,0,0,61.29-10.16c5.59-2.22,13.53-4.68,18-8.78C301.09,295.76,302.18,288.66,298.37,284Z"/><path class="cls-5" d="M145.28,193c3.29-4,8.25-6.17,13.1-7.95,14.27-5.23,47-18.92,48.24-18.89s34,13.66,48.23,18.89c4.86,1.78,9.82,4,13.11,7.95,4.39,5.32,5,13,3.39,19.67s-5,12.82-8,19a156.84,156.84,0,0,0-9.29,24,160.36,160.36,0,0,0-6.56,46c0,4.76,2.55,12.82,1.09,17.32-1.84,5.65-11.58,6.93-16.5,7.56a149,149,0,0,1-25.43,1.09,149.2,149.2,0,0,1-25.44-1.09c-4.91-.63-14.65-1.91-16.49-7.56-1.47-4.5,1.06-12.56,1.08-17.32a160.35,160.35,0,0,0-6.55-46,156.88,156.88,0,0,0-9.3-24c-3-6.21-6.45-12.31-8-19S140.88,198.33,145.28,193Z"/><path class="cls-4" d="M195.86,164.5c1.33-4.28,2-12.29,4.69-15.13,1.59-1.72,9.88-1.72,11.47,0,2.65,2.84,3.36,10.85,4.69,15.13,1.5,4.8,2.79,10.55,1.24,15.29a8.83,8.83,0,0,1-5.74,6c-2,.56-9.9.56-11.85,0a8.82,8.82,0,0,1-5.73-6C193.07,175.05,194.37,169.3,195.86,164.5Z"/><path class="cls-11" d="M162.31,320.86h90.35a8.14,8.14,0,0,0,8.1-7.45l4.69-55.83a8.13,8.13,0,0,0-8.1-8.81H157.62a8.13,8.13,0,0,0-8.1,8.81l4.69,55.83A8.12,8.12,0,0,0,162.31,320.86Z"/><path class="cls-12" d="M265.25,260a8.14,8.14,0,0,0-7.9-6.21H157.62a8.14,8.14,0,0,0-7.9,6.21l-.2-2.39a8.13,8.13,0,0,1,8.1-8.81h99.73a8.13,8.13,0,0,1,8.1,8.81Z"/><path class="cls-13" d="M207.35,142.48h-.29c-6.23,0-11.33,3.88-11.33,8.62v16.8c0,4.79,5.17,8.72,11.48,8.72h.14c6.23,0,11.33-3.88,11.33-8.62V151.1C218.68,146.36,213.58,142.48,207.35,142.48Z"/><path class="cls-14" d="M207.77,82.11c-36.09-.23-39.66,35.34-32.49,63,3.63,14,21.1,25.37,31.7,25.37,10.9,0,27.81-10.74,32.18-25.81C247.05,117.47,242.22,82.33,207.77,82.11Z"/><path class="cls-15" d="M221.25,131.55c1.42,0,2.57-2.89,2.57-6.44s-1.15-6.44-2.57-6.44-2.58,2.9-2.58,6.44S219.83,131.55,221.25,131.55Z"/><path class="cls-15" d="M194.39,131.55c1.42,0,2.57-2.89,2.57-6.44s-1.15-6.44-2.57-6.44-2.58,2.9-2.58,6.44S193,131.55,194.39,131.55Z"/><path class="cls-16" d="M210.29,141.52c-6.41,1.34-9-2.58-9.09-5.87C199.57,141.7,204,145,210.29,141.52Z"/><path class="cls-17" d="M199.74,112.48a15.91,15.91,0,0,0-12.38-.39c-2.65,1-2.16,2.4.61,1.39,4.29-1.58,7-.62,11.09,1.07C200.63,115.2,201.49,113.25,199.74,112.48Z"/><path class="cls-17" d="M216.23,112.48a15.91,15.91,0,0,1,12.38-.39c2.65,1,2.17,2.4-.61,1.39-4.29-1.58-7-.62-11.09,1.07C215.34,115.2,214.49,113.25,216.23,112.48Z"/><path class="cls-14" d="M244.4,121c-2.32-.47-5,3-5.93,7.72s.13,9,2.44,9.42,5-3,5.93-7.72S246.71,121.42,244.4,121Z"/><path class="cls-14" d="M170,121c2.31-.47,5,3,5.93,7.72s-.13,9-2.44,9.42-5-3-5.93-7.72S167.71,121.42,170,121Z"/><path class="cls-17" d="M243,123.78c-.2,3.12-3.07,9.55-2.91,2.27s-.81-25.57-8.41-33.17-16.35-3.24-24.28-3.24H207c-7.93,0-16.67-4.37-24.27,3.24s-8.58,25.89-8.42,33.17-2.7.85-2.91-2.27c-.24-3.69-1.73-13.56,4.27-27.78,4.31-10.2,15.61-17,31.78-17,18.77,0,26.94,7,31.25,17.16C244.73,110.43,243.24,120.09,243,123.78Z"/><path class="cls-16" d="M193.54,149.3c9,2.52,22.1,2.61,30.6-.91C219.14,154.64,202.18,154.62,193.54,149.3Z"/><path class="cls-16" d="M201.06,154.19a39.37,39.37,0,0,0,15.24.51C212.55,158.24,204.52,158.23,201.06,154.19Z"/><path class="cls-18" d="M208.12,66.6a14,14,0,0,0-6.83,2.16c-9.07,6-7.23,30.36,1.05,33.82,3.47,1.45,7.16-1.14,10.08,1.57,2.17,2,1.22,4.41,3.89,6.6,1.85,1.52,2.65.64,6.21,2.33,4.09,2,4.09,3.61,6.6,3.89,3,.33,4-1.91,6.61-1.56,1.5.21,3.62,1.31,5.82,5.83,11-26.91,11.9-36.39,8.94-38.26-1.62-1-5.63-.57-6.61-2.91-.52-1.26.36-2.07.22-3.83-.26-3.33-3.78-5.61-4.94-6.32-3.64-2.27-7.33-2.25-12.95-2.16a58,58,0,0,0-9.78,1,14.71,14.71,0,0,0-8.31-2.16"/><path class="cls-18" d="M221.55,77.07c-1.3,4.74-4.86,9.31-8.79,12.42a27.28,27.28,0,0,1-2.67,1.85,18.87,18.87,0,0,1-6.23,2.38,31.75,31.75,0,0,1-7.34.41c-4.21-.13-8.25-.35-12.45,2.25-4.41,2.72-9.35,8.73-10.74,23.55,0,.56-.09,1.12-.14,1.7q-.69-4.6-1.49-8.11a.2.2,0,0,0,0-.07c-.35-1.58-.71-3-1.08-4.3-.25-.88-.5-1.7-.77-2.46-1.77-5.19-3.64-7.51-5.27-8.56a10.4,10.4,0,0,1-3.39-3.7c-1.09-2.07-.41-4.9.62-6.63,2.88-4.85,10.11-3.77,10.79-7.09.33-1.63-1.34-2.19-1.24-4.48.13-2.76,2.77-4.68,4.93-6.31a22.75,22.75,0,0,1,8.17-3.84,24.38,24.38,0,0,1,11.27,0A15.48,15.48,0,0,1,205,60.26a15.46,15.46,0,0,1,15.81,7.84,7.81,7.81,0,0,1,.51,1.1A12.32,12.32,0,0,1,221.55,77.07Z"/><path class="cls-19" d="M201.16,87.84c1.31,3.89,3.47,7.84,4.66,7.57.6-.14.48-1.24,1.36-1.75,1.64-.94,4.63,1.42,5,1.75,5.21,4.18,3.45,9.56,7.18,11.26,3.21,1.47,6.11-1.78,8.74.2,2,1.53,1.16,4.12,3.11,5,2.29,1.09,4.47-1.91,7-1,3,1.12,3.14,6.67,3.5,6.6s.45-9-2.92-10.1c-2-.63-3.11,2-5.82,1.75-3.27-.37-3.18-4.45-7.77-7-3.46-1.92-5-.52-7.57-2.53s-1.79-4.05-3.5-7.77c-3.27-7.12-8.85-6.29-10.68-11.84-2-6,2.88-11.95,1.94-12.43-.76-.4-4.36,3.26-5.63,8.15C198.63,80.32,199.91,84.13,201.16,87.84Z"/><path class="cls-19" d="M218.05,64.53c-2.62-1.84-4.64-2.08-6-1.94s-1.2.52-4.56,1.65c-2.66.89-4.05,1.21-5.54,1.84-4.73,2-4.8,4.71-7.11,6.4a6.89,6.89,0,0,1-2,1c-3.85,1.32-6-.91-10.49.2a4.92,4.92,0,0,0-2.33,1c-2.12,1.86-.29,4.67-1.75,7.38-1.71,3.17-5.46,1.61-9.32,5.63-1.25,1.3-3,3.1-2.91,5.44.07,2.72,2.49,3.67,5.31,9.31,0,0,.72,1.44,1.29,2.93.93,2.38,2.18,7.24.19,15.14q-.68-3.88-1.36-7.77c-1.42-9-4.35-12.82-6.87-14.56a10.44,10.44,0,0,1-3.39-3.7c-1.09-2.07-.41-4.9.62-6.63,2.88-4.85,10.11-3.77,10.79-7.09.33-1.63-1.34-2.19-1.24-4.48.13-2.76,2.77-4.68,4.93-6.31a22.75,22.75,0,0,1,8.17-3.84,24.38,24.38,0,0,1,11.27,0A15.06,15.06,0,0,1,205,60.26C212.34,59,217.54,64,218.05,64.53Z"/><path class="cls-2" d="M71.35,116.75a6.45,6.45,0,0,0,5.37-2,6.72,6.72,0,0,0,1.87-4.5,7.15,7.15,0,0,0-1.87-4.49,6.35,6.35,0,0,0-5.37-2,7,7,0,0,0-4.61,1.91,6.52,6.52,0,0,0,0,9.22,7.42,7.42,0,0,0,4.61,1.92Z"/><path class="cls-2" d="M358.28,286.13a6.42,6.42,0,0,0,5.37-2,6.7,6.7,0,0,0,1.87-4.5,7.15,7.15,0,0,0-1.87-4.49,6.38,6.38,0,0,0-5.37-2,7,7,0,0,0-4.61,1.91,6.53,6.53,0,0,0,0,9.23,7.47,7.47,0,0,0,4.61,1.91Z"/><path class="cls-2" d="M402.71,230.48l11.13,5.18a2.24,2.24,0,0,0,.92.2,2.18,2.18,0,0,0,1.16-.34,2.14,2.14,0,0,0,1-1.82v-.06a2.16,2.16,0,0,0-1.25-2l-7-3.24,7-3.23a2.18,2.18,0,0,0,1.25-2v-.06a2.13,2.13,0,0,0-1-1.82,2.1,2.1,0,0,0-1.17-.34,2.19,2.19,0,0,0-.91.2l-11.13,5.17a2.19,2.19,0,0,0-1.25,2v.15A2.16,2.16,0,0,0,402.71,230.48Z"/><path class="cls-2" d="M417,241a2.18,2.18,0,0,0,1.75.89h.05a2.16,2.16,0,0,0,2.06-1.51l7.34-22.72a2.18,2.18,0,0,0-2.06-2.83h-.06a2.17,2.17,0,0,0-2.06,1.51l-7.34,22.72A2.2,2.2,0,0,0,417,241Z"/><path class="cls-2" d="M428,223.25a2.18,2.18,0,0,0,1.25,2l7,3.23-7,3.24a2.16,2.16,0,0,0-1.25,2v.06a2.17,2.17,0,0,0,1,1.82,2.19,2.19,0,0,0,1.17.34,2.23,2.23,0,0,0,.91-.2l11.13-5.18a2.16,2.16,0,0,0,1.25-2v-.15a2.19,2.19,0,0,0-1.25-2l-11.13-5.17a2.16,2.16,0,0,0-3.08,2v.06Z"/><path class="cls-2" d="M10.59,257.86a8.78,8.78,0,1,0,9.89,7.51A8.78,8.78,0,0,0,10.59,257.86Z"/><path class="cls-2" d="M35.59,225a5.82,5.82,0,1,0,6.55,5v0a5.8,5.8,0,0,0-6.53-5Z"/><path class="cls-2" d="M17.49,189.61a4.55,4.55,0,1,0,.05,0Z"/><path class="cls-20" d="M300.79,162.54a8.78,8.78,0,1,0-4.08,11.73A8.78,8.78,0,0,0,300.79,162.54Z"/><path class="cls-20" d="M339.75,176.11a5.82,5.82,0,1,0-2.7,7.78h0a5.8,5.8,0,0,0,2.69-7.74Z"/><path class="cls-20" d="M367.81,147.92a3.89,3.89,0,1,0-1.79,5.21,3.9,3.9,0,0,0,1.79-5.21Z"/><path class="cls-2" d="M115.82,20.48c24.33,0,44.08,12.25,44.08,27.38,0,8.53-6.26,16.13-16.06,21.16-1.75,1,3.35,6.24,3.35,6.24s-12-2.77-13.6-2.31a67.93,67.93,0,0,1-17.89,2.31C91.36,75.26,71.62,63,71.62,47.89S91.49,20.48,115.82,20.48Z"/><path class="cls-20" d="M132.18,44.63h0a3.76,3.76,0,1,1-3.77,3.74A3.76,3.76,0,0,1,132.2,44.63Z"/><path class="cls-20" d="M115.24,44.63h0a3.76,3.76,0,1,1-3.78,3.74A3.75,3.75,0,0,1,115.26,44.63Z"/><circle class="cls-20" cx="98.29" cy="48.37" r="3.74"/><path class="cls-2" d="M329.19,234.07l-7.06.75-.75-7.08a3.8,3.8,0,1,0-7.56.78h0l.73,7.08-7.06.73a3.83,3.83,0,0,0-3.4,4.14,3.79,3.79,0,0,0,4.14,3.37l7.06-.72.75,7.08a3.8,3.8,0,0,0,7.56-.79l-.75-7,7.06-.72a3.81,3.81,0,0,0-.79-7.58Z"/><path class="cls-2" d="M428,117l-7.06.74-.74-7.08a3.8,3.8,0,0,0-7.56.79h0l.72,7.08-7.06.72a3.84,3.84,0,0,0-3.39,4.15,3.79,3.79,0,0,0,4.14,3.37l7.06-.72.74,7.08a3.8,3.8,0,0,0,7.56-.79l-.74-7,7.06-.72a3.81,3.81,0,0,0-.79-7.58Z"/><path class="cls-2" d="M436.87,182.38a4.68,4.68,0,0,0,0,.53,1.72,1.72,0,0,0,.39,1.25,1.34,1.34,0,0,0,1,.41,3.29,3.29,0,0,0,2.46-1.32,9.74,9.74,0,0,0,1.82-3.42,13.85,13.85,0,0,0,.68-4.29,7.75,7.75,0,0,0-1.13-4.14,7.46,7.46,0,0,0-3.21-2.83,10.93,10.93,0,0,0-4.87-1,18,18,0,0,0-7.93,1.74,13.55,13.55,0,0,0-5.61,5.05,14.46,14.46,0,0,0-2.07,7.77,10.92,10.92,0,0,0,1.08,4.86,8.53,8.53,0,0,0,3.41,3.58,10.56,10.56,0,0,0,5.68,1.39,15.23,15.23,0,0,0,4.14-.49,17,17,0,0,0,3.43-1.52,1.42,1.42,0,0,1,.67-.2c.45,0,.78.29,1,.85a.72.72,0,0,1,.1.41c0,.5-.43,1-1.28,1.43a24.77,24.77,0,0,1-3.87,1.63,14.26,14.26,0,0,1-4.31.56,13.3,13.3,0,0,1-7.24-1.78,10.6,10.6,0,0,1-4.15-4.64,14.43,14.43,0,0,1-1.34-6.21,16.81,16.81,0,0,1,2.44-9.11,16.11,16.11,0,0,1,6.52-6,20.27,20.27,0,0,1,9.3-2.07,13.74,13.74,0,0,1,6.48,1.43,10.09,10.09,0,0,1,4.14,3.87,10.7,10.7,0,0,1,1.39,5.44,13.92,13.92,0,0,1-1.14,5.55,11.07,11.07,0,0,1-3.33,4.41,7.43,7.43,0,0,1-4.83,1.72,4.24,4.24,0,0,1-2.5-.79,3.29,3.29,0,0,1-1.39-2.07,5.39,5.39,0,0,1-5.07,2.82,4.88,4.88,0,0,1-2.47-.68,5.05,5.05,0,0,1-1.9-2.07,6.21,6.21,0,0,1-.7-3,10.37,10.37,0,0,1,1.09-4.47,11.39,11.39,0,0,1,3.07-3.79,6.41,6.41,0,0,1,4.14-1.55,3.64,3.64,0,0,1,2.07.64,4,4,0,0,1,1.41,1.76l.1-.95a1.63,1.63,0,0,1,.56-1,1.92,1.92,0,0,1,1.32-.42c1.22,0,1.85.5,1.85,1.47a5.23,5.23,0,0,1,0,.56Zm-3.11-5a2.36,2.36,0,0,0-.76-2.07,2.88,2.88,0,0,0-1.93-.63,3.31,3.31,0,0,0-2.36,1.06,7.27,7.27,0,0,0-1.68,2.71,8.94,8.94,0,0,0-.58,3.07,2.74,2.74,0,0,0,.63,2,2.24,2.24,0,0,0,1.71.67,3.33,3.33,0,0,0,2.07-.67,5.69,5.69,0,0,0,1.52-1.61,6.42,6.42,0,0,0,.82-1.76A8.86,8.86,0,0,0,433.76,177.35Z"/><path class="cls-2" d="M84.16,165.07a26.7,26.7,0,1,0,26.69,26.7A26.69,26.69,0,0,0,84.16,165.07Zm9.92,39.73a12.57,12.57,0,0,1-6.41,3.43v3.16a2.88,2.88,0,0,1-2.84,2.93.14.14,0,0,1-.09,0,2.6,2.6,0,0,1-2-.84,2.83,2.83,0,0,1-.84-2.09v-2.72a17.65,17.65,0,0,1-4.76-1.06A15.72,15.72,0,0,1,73,205a3.37,3.37,0,0,1-1.29-2.49,2.77,2.77,0,0,1,.62-2.18,2.63,2.63,0,0,1,2-.85,2.43,2.43,0,0,1,1.6.58A18.15,18.15,0,0,0,78.77,202a9,9,0,0,0,2.94.93v-9.3c-6.27-1.29-9.39-4.45-9.39-9.79A8.93,8.93,0,0,1,75,177.26a12.28,12.28,0,0,1,7-3.16v-1.6a2.86,2.86,0,0,1,.84-2.05,2.72,2.72,0,0,1,2.09-.84,2.67,2.67,0,0,1,2,.84,2.77,2.77,0,0,1,.8,2.05v1.78a14.32,14.32,0,0,1,6.77,3,3.19,3.19,0,0,1,1.37,2.53,2.88,2.88,0,0,1-.84,2,2.6,2.6,0,0,1-1.91.8,2.24,2.24,0,0,1-1.29-.4,12.47,12.47,0,0,0-4.19-2v8.9a13.29,13.29,0,0,1,6.9,3.12,9.63,9.63,0,0,1-.36,12.54Zm-6.41-9.92v7.61a6.46,6.46,0,0,0,2.45-1.56,2.9,2.9,0,0,0,.85-2,3.7,3.7,0,0,0-.85-2.32A6.31,6.31,0,0,0,87.67,194.88Zm-9.74-11.3a3.45,3.45,0,0,0,1,2.58,6.9,6.9,0,0,0,3,1.56v-8a6,6,0,0,0-3,1.42A3.31,3.31,0,0,0,77.93,183.58Z"/></g></g></svg>