<svg id="Layer_1" data-name="Layer 1" xmlns="http://www.w3.org/2000/svg" xmlns:xlink="http://www.w3.org/1999/xlink" viewBox="0 0 375.63 339.77"><defs><linearGradient id="linear-gradient" x1="336.48" y1="224.09" x2="353.47" y2="217.05" gradientUnits="userSpaceOnUse"><stop offset="0.01"/><stop offset="0.09" stop-opacity="0.82"/><stop offset="1" stop-opacity="0"/></linearGradient><linearGradient id="linear-gradient-2" x1="183.71" y1="245.77" x2="244.75" y2="259.86" gradientUnits="userSpaceOnUse"><stop offset="0.01"/><stop offset="0.12" stop-opacity="0.75"/><stop offset="1" stop-opacity="0"/></linearGradient><linearGradient id="linear-gradient-3" x1="247.69" y1="158.11" x2="241.65" y2="273.53" xlink:href="#linear-gradient"/><linearGradient id="linear-gradient-4" x1="355.65" y1="317.89" x2="126.76" y2="225.32" xlink:href="#linear-gradient-2"/><linearGradient id="linear-gradient-5" x1="238.78" y1="192.8" x2="254.04" y2="220.97" xlink:href="#linear-gradient"/><linearGradient id="linear-gradient-6" x1="189.05" y1="157.08" x2="204.89" y2="168.15" xlink:href="#linear-gradient"/><linearGradient id="linear-gradient-7" x1="212.02" y1="151.21" x2="182.84" y2="185.17" xlink:href="#linear-gradient"/><linearGradient id="linear-gradient-8" x1="262.14" y1="158.71" x2="249.65" y2="178.42" xlink:href="#linear-gradient"/><linearGradient id="linear-gradient-9" x1="277.87" y1="154.35" x2="209.7" y2="195.35" xlink:href="#linear-gradient"/><linearGradient id="linear-gradient-10" x1="279.71" y1="127.6" x2="236.2" y2="131.37" xlink:href="#linear-gradient"/><linearGradient id="linear-gradient-11" x1="304.68" y1="251.76" x2="248" y2="264.84" xlink:href="#linear-gradient-2"/><linearGradient id="linear-gradient-12" x1="251.12" y1="177.42" x2="260.3" y2="196.29" gradientUnits="userSpaceOnUse"><stop offset="0.02" stop-color="#fff" stop-opacity="0"/><stop offset="0.58" stop-color="#fff" stop-opacity="0.39"/><stop offset="0.68" stop-color="#fff" stop-opacity="0.68"/><stop offset="1" stop-color="#fff"/></linearGradient><linearGradient id="linear-gradient-13" x1="241.34" y1="183.1" x2="230.27" y2="205.41" gradientUnits="userSpaceOnUse"><stop offset="0.01"/><stop offset="1" stop-opacity="0"/></linearGradient><linearGradient id="linear-gradient-14" x1="7837.49" y1="348.03" x2="7838.16" y2="317.51" gradientTransform="matrix(-1, 0, 0, 1, 8029.49, -2.82)" xlink:href="#linear-gradient-2"/><linearGradient id="linear-gradient-15" x1="7885.45" y1="366.87" x2="7889.98" y2="252.18" gradientTransform="matrix(-1, 0, 0, 1, 8042.32, 0)" xlink:href="#linear-gradient-2"/></defs><title>Customer Success</title><path d="M388.46,240.17c-.06,12.26-4.48,24.12-10.2,35-12.11,22.91-31.55,42.52-54.46,54.24l2.39-.54c-37.48,27.65-102.1,4.64-148.6,7.25-26.54,1.49-53.08,5.15-79.6,3.41s-39.86,10.62-59.17-7.65C13.62,308,7.23,269.22,17.56,235.91a98.76,98.76,0,0,1,10.75-23.52,139.77,139.77,0,0,1,11.91-16c18.13-21.28,41.29-38.72,55.62-62.79,14.59-24.51,18.89-54.07,33.45-78.6A106.68,106.68,0,0,1,292.85,30.57C301,38,308,46.74,311.92,57c4.21,11,4.65,23.05,8.09,34.3,5,16.4,16.06,30.13,25.3,44.58,12.68,19.83,22.16,41.5,31.59,63.06C382.66,212.1,388.53,225.77,388.46,240.17Z" transform="translate(-12.83 -2.82)" fill="#62b9bf" opacity="0.18" style="isolation:isolate"/><path d="M342.71,218.23a19.28,19.28,0,0,1,2-5.4,8,8,0,0,1,1.7-2A2.28,2.28,0,0,1,350,212c.91,3.5.62,7.3.3,10.94a10,10,0,0,1-.71,3.43c-1.35,2.86-6.33,4.14-8.25,1.06C339.91,225.06,342.11,220.59,342.71,218.23Z" transform="translate(-12.83 -2.82)" fill="#ffdad2"/><path d="M342.71,218.23a19.28,19.28,0,0,1,2-5.4,7.41,7.41,0,0,1,.77-1.09,2.78,2.78,0,0,1,4.82,1.26,36.05,36.05,0,0,1,.07,9.9,10,10,0,0,1-.71,3.43c-1.35,2.86-6.33,4.14-8.25,1.06C339.91,225.06,342.11,220.59,342.71,218.23Z" transform="translate(-12.83 -2.82)" fill="url(#linear-gradient)"/><path d="M307.93,91.23,291,141.07l-13-.85,5.25-28.16L160.21,201,120,163.5,17.56,235.91a98.76,98.76,0,0,1,10.75-23.52,139.77,139.77,0,0,1,11.91-16l81.32-55.32,41.39,36.32,111.5-76L246.55,94.8,246,80Z" transform="translate(-12.83 -2.82)" fill="#62b9bf" opacity="0.42" style="isolation:isolate"/><path d="M180.77,313.49c-.87,2.55-1.67,5.46-.38,7.82a10,10,0,0,0,3.39,3.19l12.3,8.35c2.36,1.6,4.86,3.26,7.7,3.47s6.05-1.59,6.29-4.43c.28-3.28-3.15-5.51-4.75-8.38-2.11-3.77-.95-8.43.15-12.59a228.18,228.18,0,0,0,6-32c-2.52-1-9.86-5.65-12.43-4.89-3,.88-5.6,9.12-6.91,11.8A212.83,212.83,0,0,0,180.77,313.49Z" transform="translate(-12.83 -2.82)" fill="#ffdad2"/><path d="M232,108.6c2.64-1.57,5.35-3.16,8.36-3.75s6.45,0,8.51,2.28a17.45,17.45,0,0,0-13,7,1.34,1.34,0,0,1-.69.58,1.27,1.27,0,0,1-.71-.13c-1.24-.47-6.41-1-6.95-2.06C226.72,110.76,230.83,109.29,232,108.6Z" transform="translate(-12.83 -2.82)"/><path d="M210,164.84c1,14.76,3.42,29.72.52,44.23-1.95,9.78-6.3,19.62-4.14,29.35,2.37,10.72,13.44,18.77,24.36,17.72,6.92-.67,13.11-4.42,19.73-6.54a42.76,42.76,0,0,1,17.26-1.83c5.21.52,10.85,1.91,15.39-.69,3.78-2.16,5.72-6.67,5.92-11s-1-8.61-2.31-12.78c-2.59-8.55-5.32-17.28-5-26.21.26-6.41,2.11-12.63,3.42-18.91,2.36-11.26,3-23.25-1.07-34s-13.41-20-24.83-21.45c-5.88-.72-11.87.62-17.73-.21-5.17-.73-10-3.12-15.09-4.16a10.3,10.3,0,0,0-5.4.05c-6.14,2.13-9.06,15.41-10.12,20.89C209.28,147.67,209.36,156.33,210,164.84Z" transform="translate(-12.83 -2.82)" fill="#fe8311"/><path d="M204.35,243c-3.18,9.06-6.57,18.15-11.68,26.29a1,1,0,0,0,.22,1.53c5.14,4.5,10.69,9.19,17.45,10.16a2.18,2.18,0,0,0,1.32-.11,2.21,2.21,0,0,0,.83-1.13c4.31-10,5.82-20.93,5.69-31.75a132.14,132.14,0,0,0-1.28-16.14c-.18-1.31-.28-7.08-1.41-7.75-1.73-1-3.62,2.52-4.36,3.64C208,232.36,206.19,237.73,204.35,243Z" transform="translate(-12.83 -2.82)" fill="#62b9bf"/><path d="M204.35,243c-3.18,9.06-6.57,18.15-11.68,26.29a1,1,0,0,0,.22,1.53c5.14,4.5,10.69,9.19,17.45,10.16a2.18,2.18,0,0,0,1.32-.11,2.21,2.21,0,0,0,.83-1.13c4.31-10,5.82-20.93,5.69-31.75a132.14,132.14,0,0,0-1.28-16.14c-.18-1.31-.28-7.08-1.41-7.75-1.73-1-3.62,2.52-4.36,3.64C208,232.36,206.19,237.73,204.35,243Z" transform="translate(-12.83 -2.82)" fill="url(#linear-gradient-2)"/><path d="M218.12,164.84c.72,14.76,2.41,29.72.37,44.23-1.38,9.78-4.45,19.62-2.93,29.35,1.68,10.72,9.48,18.77,17.18,17.72,4.87-.67,9.23-4.42,13.9-6.54a21.83,21.83,0,0,1,12.17-1.83c3.67.52,7.64,1.91,10.84-.69,2.66-2.16,4-6.67,4.18-11a53.17,53.17,0,0,0-1.63-12.78c-1.83-8.55-3.76-17.28-3.5-26.21.18-6.41,1.48-12.63,2.41-18.91,1.66-11.26,2.09-23.25-.75-34s-9.46-20-17.51-21.45c-4.13-.72-8.36.62-12.49-.21-3.64-.73-7-3.12-10.64-4.16a5.19,5.19,0,0,0-3.8.05c-4.33,2.13-6.38,15.41-7.13,20.89A140,140,0,0,0,218.12,164.84Z" transform="translate(-12.83 -2.82)" fill="url(#linear-gradient-3)"/><path d="M252.59,214.05a64.21,64.21,0,0,1,19.55,1.9c6.33,1.79,12.34,5.15,16.49,10.25,4.6,5.65,6.61,13,7.08,20.3s-.5,14.54-1.23,21.79a346,346,0,0,0-1.35,51.1c.2,4.08.27,8.69-2.6,11.6-1.81,1.84-4.44,2.58-6.95,3.18-20.76,5-43.26,5.87-62.92-2.46-5-2.12-10-5.07-12.47-9.89-2.68-5.24-1.81-11.5-.95-17.32q3.94-26.64,5.67-53.54c.51-7.94-.08-16.5,1.55-24.3,1.18-5.65,4.83-7.2,10.09-8.58A126.41,126.41,0,0,1,252.59,214.05Z" transform="translate(-12.83 -2.82)" fill="#62b9bf"/><path d="M252.59,214.05a64.21,64.21,0,0,1,19.55,1.9c6.33,1.79,12.34,5.15,16.49,10.25,4.6,5.65,6.61,13,7.08,20.3s-.5,14.54-1.23,21.79a346,346,0,0,0-1.35,51.1c.2,4.08.27,8.69-2.6,11.6-1.81,1.84-4.44,2.58-6.95,3.18-20.76,5-43.26,5.87-62.92-2.46-5-2.12-10-5.07-12.47-9.89-2.68-5.24-1.81-11.5-.95-17.32q3.94-26.64,5.67-53.54c.51-7.94-.08-16.5,1.55-24.3,1.18-5.65,4.83-7.2,10.09-8.58A126.41,126.41,0,0,1,252.59,214.05Z" transform="translate(-12.83 -2.82)" fill="url(#linear-gradient-4)"/><path d="M233.44,217.31a38.93,38.93,0,0,1,1.14-4.34h0c1-3.29,2.25-6.5,2.12-10,0-.72-.06-1.46-.07-2.19a10.15,10.15,0,0,1,.59-3.88,9.89,9.89,0,0,1,3.3-4c3.18-2.46,12.46-7.07,14.29-1a11.57,11.57,0,0,1,.41,3.28v.2c0,1.62-.21,3.28-.23,4.8a24.76,24.76,0,0,0,2,11.13C259.68,216.91,228.89,241.94,233.44,217.31Z" transform="translate(-12.83 -2.82)" fill="#ffdad2"/><path d="M255.31,195.22l-.09.22h0c-.95,2.17-8.76,19.44-19.36,19,0,0-.81.07-1.28-1.45h0c1-3.29,2.25-6.5,2.12-10,0-.72-.06-1.46-.07-2.19l18.59-5.56Z" transform="translate(-12.83 -2.82)" fill="url(#linear-gradient-5)"/><ellipse cx="197.86" cy="163.24" rx="10" ry="12.33" fill="#62b9bf"/><ellipse cx="197.86" cy="163.24" rx="10" ry="12.33" fill="url(#linear-gradient-6)"/><ellipse cx="201.69" cy="163.24" rx="10" ry="12.33" fill="#62b9bf"/><ellipse cx="201.69" cy="163.24" rx="10" ry="12.33" fill="url(#linear-gradient-7)"/><path d="M211.92,141l2.5,45s1.12,17.29,18.25,17.46c20.58.2,26.85-11.77,30-20.88s6-35.85,0-43.25S223.19,114.56,211.92,141Z" transform="translate(-12.83 -2.82)" fill="#ffdad2"/><path d="M208.25,119.13c-6.17,6.81-8.33,16.6-7.4,25.75a8.79,8.79,0,0,0,1.66,4.94,9.66,9.66,0,0,0,4.55,2.47c2.92,1,6,1.92,9,1.35s5.88-3.26,5.49-6.31c-.89,1.75.1,4,1.68,5.14a12.53,12.53,0,0,0,5.54,1.82l10.08,1.64,1.76-6.8a8.51,8.51,0,0,0,12.72,8.49c.58,2,3.07,2.92,5.13,2.56s3.84-1.63,5.65-2.68a28.91,28.91,0,0,1,17.13-3.87c2.11-14-7.07-28.89-20.55-33.27-3.32-1.08-6.79-1.57-10.19-2.35C236,114.68,220.73,105.35,208.25,119.13Z" transform="translate(-12.83 -2.82)" fill="#fe8311"/><ellipse cx="259.27" cy="163.24" rx="10" ry="12.33" fill="#62b9bf"/><ellipse cx="259.27" cy="163.24" rx="10" ry="12.33" fill="url(#linear-gradient-8)"/><ellipse cx="263.1" cy="163.24" rx="10" ry="12.33" fill="#62b9bf"/><ellipse cx="263.1" cy="163.24" rx="10" ry="12.33" fill="url(#linear-gradient-9)"/><path d="M270.24,154.51l-5.19-27c-3-11.27-10.75-19.72-20.27-22.17l-2.2-.56,4.07-.29c10.22-.73,19.62,6.81,23.11,18.53l7.1,30.82Z" transform="translate(-12.83 -2.82)" fill="#62b9bf"/><path d="M270.24,154.51l-5.19-27c-3-11.27-10.75-19.72-20.27-22.17l-2.2-.56,4.07-.29c10.22-.73,19.62,6.81,23.11,18.53l7.1,30.82Z" transform="translate(-12.83 -2.82)" fill="url(#linear-gradient-10)"/><path d="M247.31,245.37c4.87-5.14,8.45-11.35,12-17.49,2.15-3.75,4.36-7.66,4.66-12a2.51,2.51,0,0,0-.22-1.44,2.68,2.68,0,0,0-.82-.75l-6.69-4.58c-.12,4.11-3.07,7.64-6.44,10-3.59,2.53-13.76,5.3-11.6,10.55C238.73,231.06,246.74,246,247.31,245.37Z" transform="translate(-12.83 -2.82)" fill="#62b9bf"/><path d="M229.2,214.93a18.78,18.78,0,0,0-2.89,6.6c-1.68,6.65-1.36,13.62-1,20.47,0,.42.11.93.5,1.06a.92.92,0,0,0,.65-.08,8.77,8.77,0,0,0,3.6-3.59,122.44,122.44,0,0,0,6.73-11.58,3,3,0,0,0,.42-1.31,3.33,3.33,0,0,0-1.06-1.93c-2.23-2.7-2.37-6-1.95-9.41.13-1.06,1.17-3-.21-3.5C232.85,211.24,229.73,214.21,229.2,214.93Z" transform="translate(-12.83 -2.82)" fill="#62b9bf"/><path d="M297.16,281.77c-2.54,1.66-6.05.72-8.86.64-3.62-.11-5.15.2-4.35,3.85,2,9.11,4.15,18,7.65,26.7a40.71,40.71,0,0,0,5.21,9.79,13.64,13.64,0,0,0,6.88,5.09c3.59,1,7.49-.27,10.51-2.45s5.3-5.19,7.53-8.17c8-10.69,10-23.28,15.08-35.72,5.21-12.92,12.31-25.66,14.44-39.33.52-3.29.86-7.14-1.51-9.49s-6.85-1.81-9.53.43-4.08,5.6-5.43,8.82c-6.07,14.48-12.89,28.64-19.71,42.78a2.2,2.2,0,0,1-1,1.22,1.74,1.74,0,0,1-1.5-.3c-2.51-1.61-3.28-5.34-6.23-6.5C303.18,277.9,299.72,280.1,297.16,281.77Z" transform="translate(-12.83 -2.82)" fill="#ffdad2"/><path d="M312.42,287.83c-9.64,2.32-20.33,4.51-29-.24a8.81,8.81,0,0,1-3.62-3.21c-1-1.77-1-3.92-1.06-6-.42-9.39-4-18.37-4.85-27.73-1.29-14.74-6.94-37.46,12.64-28.81,10.82,4.78,22.25,27.75,24.57,37.38C311.75,262.08,315.91,287,312.42,287.83Z" transform="translate(-12.83 -2.82)" fill="#62b9bf"/><path d="M312.42,287.83c-9.64,2.32-20.33,4.51-29-.24a8.81,8.81,0,0,1-3.62-3.21c-1-1.77-1-3.92-1.06-6-.42-9.39-4-18.37-4.85-27.73-1.29-14.74-6.94-37.46,12.64-28.81,10.82,4.78,22.25,27.75,24.57,37.38C311.75,262.08,315.91,287,312.42,287.83Z" transform="translate(-12.83 -2.82)" fill="url(#linear-gradient-11)"/><path d="M333.91,221.45a13,13,0,0,0-3.93,8.86c-.19,3.1.47,6.22,0,9.29-.35,2.43-1.38,4.82-1,7.25a3.55,3.55,0,0,0,.88,2,5,5,0,0,0,2,1.06c3.35,1.15,6.82,2.26,10.36,2.11s7.22-1.82,8.84-5a15.39,15.39,0,0,0,1.21-6.5l.23-6.08a26.11,26.11,0,0,0-.54-8.19,8.89,8.89,0,0,0-5.09-6.09C342.74,218.68,337.36,218.33,333.91,221.45Z" transform="translate(-12.83 -2.82)" fill="#ffdad2"/><path d="M252.57,198.35a41.46,41.46,0,0,1-11.85-2,1.79,1.79,0,1,1,1-3.42c9.17,2.76,16.08,2.39,20.52-1.09,6-4.71,5.62-13.69,5.62-13.78a1.78,1.78,0,0,1,1.69-1.88,1.79,1.79,0,0,1,1.87,1.69c0,.45.48,10.94-7,16.78C261.35,197.13,257.37,198.35,252.57,198.35Z" transform="translate(-12.83 -2.82)" fill="url(#linear-gradient-12)"/><path d="M241.65,190a4.7,4.7,0,0,1,2.25,2.43c.4,1.52-.78,3-2,4a7.48,7.48,0,0,1-3.69,1.82c-2,.24-3.94-.84-5.61-2a7.3,7.3,0,0,1-2.34-2.25c-1.55-2.73.45-6.22,3.09-7.39C236.25,185.22,239.36,188.44,241.65,190Z" transform="translate(-12.83 -2.82)" fill="url(#linear-gradient-13)"/><rect x="112.37" y="323.7" width="158.64" height="14.63" rx="7.31" fill="#62b9bf"/><rect x="112.37" y="323.7" width="158.64" height="14.63" rx="7.31" fill="url(#linear-gradient-14)"/><path d="M226.6,341.16H116.07L86.92,267.23a6.5,6.5,0,0,1,6-8.88H179.7a20.92,20.92,0,0,1,19.47,13.25Z" transform="translate(-12.83 -2.82)" fill="#62b9bf"/><path d="M221,341.24H116L88.32,271a6.16,6.16,0,0,1,5.74-8.43h82.38a19.88,19.88,0,0,1,18.49,12.58Z" transform="translate(-12.83 -2.82)" fill="#62b9bf"/><path d="M221,341.24H116L88.32,271a6.16,6.16,0,0,1,5.74-8.43h82.38a19.88,19.88,0,0,1,18.49,12.58Z" transform="translate(-12.83 -2.82)" fill="url(#linear-gradient-15)"/></svg>